<svg xmlns="http://www.w3.org/2000/svg" viewBox="258.351 200.904 45 45">
  <circle cx="280.851" cy="223.404" r="22.5" fill="#007AB9"/>
  <path d="M 294.287 225.209 L 294.287 234.474 L 288.913 234.474 L 288.913 225.851 C 288.913 223.685 288.151 222.201 286.185 222.201 C 284.701 222.201 283.819 223.204 283.418 224.166 C 283.258 224.527 283.258 225.009 283.258 225.49 L 283.258 234.514 L 277.883 234.514 C 277.883 234.514 277.963 219.875 277.883 218.351 L 283.258 218.351 L 283.258 220.637 C 283.258 220.637 283.217 220.677 283.217 220.677 L 283.258 220.677 L 283.258 220.637 C 283.979 219.554 285.263 217.95 288.11 217.95 C 291.64 217.95 294.287 220.236 294.287 225.209 L 294.287 225.209 Z M 272.268 210.53 C 270.423 210.53 269.22 211.733 269.22 213.337 C 269.22 214.902 270.383 216.145 272.188 216.145 L 272.228 216.145 C 274.113 216.145 275.276 214.902 275.276 213.337 C 275.236 211.733 274.073 210.53 272.268 210.53 L 272.268 210.53 Z M 269.541 234.474 L 274.915 234.474 L 274.915 218.311 L 269.541 218.311 L 269.541 234.474 Z" fill="#F1F2F2"/>
</svg>