<svg xmlns="http://www.w3.org/2000/svg" viewBox="306.451 266.87 45 43.89">
  <path fill-rule="evenodd" d="M 328.951 266.87 C 316.52 266.87 306.451 276.939 306.451 289.37 C 306.451 299.326 312.892 307.736 321.835 310.717 C 322.96 310.914 323.382 310.239 323.382 309.648 C 323.382 309.114 323.354 307.342 323.354 305.457 C 317.701 306.498 316.239 304.079 315.789 302.814 C 315.535 302.167 314.439 300.17 313.482 299.636 C 312.695 299.214 311.57 298.173 313.454 298.145 C 315.226 298.117 316.492 299.776 316.914 300.451 C 318.939 303.854 322.173 302.898 323.467 302.307 C 323.664 300.845 324.254 299.861 324.901 299.298 C 319.895 298.736 314.664 296.795 314.664 288.189 C 314.664 285.742 315.535 283.717 316.97 282.142 C 316.745 281.579 315.957 279.273 317.195 276.179 C 317.195 276.179 319.079 275.589 323.382 278.486 C 325.182 277.979 327.095 277.726 329.007 277.726 C 330.92 277.726 332.832 277.979 334.632 278.486 C 338.935 275.561 340.82 276.179 340.82 276.179 C 342.057 279.273 341.27 281.579 341.045 282.142 C 342.479 283.717 343.351 285.714 343.351 288.189 C 343.351 296.823 338.092 298.736 333.085 299.298 C 333.901 300.001 334.604 301.351 334.604 303.461 C 334.604 306.47 334.576 308.889 334.576 309.648 C 334.576 310.239 334.998 310.942 336.123 310.717 C 345.282 307.625 351.449 299.037 351.451 289.37 C 351.451 276.939 341.382 266.87 328.951 266.87 Z"/>
</svg>