<?xml version="1.0" encoding="UTF-8" standalone="no"?>
<svg
   xmlns:dc="http://purl.org/dc/elements/1.1/"
   xmlns:cc="http://creativecommons.org/ns#"
   xmlns:rdf="http://www.w3.org/1999/02/22-rdf-syntax-ns#"
   xmlns:svg="http://www.w3.org/2000/svg"
   xmlns="http://www.w3.org/2000/svg"
   xmlns:sodipodi="http://sodipodi.sourceforge.net/DTD/sodipodi-0.dtd"
   xmlns:inkscape="http://www.inkscape.org/namespaces/inkscape"
   inkscape:version="1.0 (4035a4f, 2020-05-01)"
   sodipodi:docname="food-finder-logo-bullseye-boxySVG.svg"
   id="svg22"
   version="1.1"
   height="512px"
   width="512px"
   viewBox="0 0 512 512">
  <metadata
     id="metadata28">
    <rdf:RDF>
      <cc:Work
         rdf:about="">
        <dc:format>image/svg+xml</dc:format>
        <dc:type
           rdf:resource="http://purl.org/dc/dcmitype/StillImage" />
      </cc:Work>
    </rdf:RDF>
  </metadata>
  <defs
     id="defs26" />
  <sodipodi:namedview
     inkscape:current-layer="layer4"
     inkscape:window-maximized="0"
     inkscape:window-y="23"
     inkscape:window-x="0"
     inkscape:cy="256"
     inkscape:cx="220.12517"
     inkscape:zoom="1.4355469"
     inkscape:snap-page="true"
     showgrid="false"
     id="namedview24"
     inkscape:window-height="1112"
     inkscape:window-width="1920"
     inkscape:pageshadow="2"
     inkscape:pageopacity="0"
     guidetolerance="10"
     gridtolerance="10"
     objecttolerance="10"
     borderopacity="1"
     bordercolor="#666666"
     pagecolor="#ffffff" />
  <g
     style="display:inline"
     inkscape:label="background"
     id="layer4"
     inkscape:groupmode="layer">
    <rect
       y="0"
       x="0"
       height="512"
       width="512"
       id="rect877"
       style="fill:#ffffff" />
  </g>
  <g
     style="display:inline"
     inkscape:label="Target logo"
     id="layer3"
     inkscape:groupmode="layer">
    <g
       id="g866">
      <g
         transform="matrix(2.9728416,0,0,2.923421,35.982919,39.692363)"
         id="g20">
        <title
           id="title10">logo</title>
        <path
           d="m 96.352,-479.306 c 0.561,0.628 0.627,1.355 0.726,6.212 0.132,7.368 -0.264,6.972 6.86,6.972 5.178,0 5.409,0.033 6.266,0.793 a 2.244,2.244 0 0 1 0.923,2.016 c 0,1.156 -0.33,1.586 -5.936,7.1 -7.025,6.972 -7.75,7.4 -13.06,8.095 -6.365,0.859 -4.452,-0.727 -29.615,24.45 -15.5,15.5 -22.624,22.435 -23.481,22.8 a 4.832,4.832 0 0 1 -4.452,-0.165 5.446,5.446 0 0 1 -2.737,-6.509 c 0.33,-0.991 5.013,-5.881 22.756,-23.723 25.3,-25.441 23.778,-23.591 24.537,-29.836 a 18.911,18.911 0 0 1 1.22,-5.253 c 0.495,-1.09 2.605,-3.5 6.695,-7.632 5.8,-5.881 5.969,-6.013 7.288,-6.013 a 2.447,2.447 0 0 1 2.01,0.693 z"
           transform="translate(36.873,480)"
           style="fill:#2699fb;stroke:#2699fb;stroke-width:0px"
           id="path12" />
        <path
           d="m 114.664,-479.533 a 78.014,78.014 0 0 1 23.844,7.2 13.211,13.211 0 0 1 3.331,2.214 5.487,5.487 0 0 1 -1.748,8.293 c -1.649,0.859 -3.76,0.628 -6.3,-0.628 a 66.636,66.636 0 0 0 -19.623,-6.079 75.19,75.19 0 0 0 -20.942,0.661 c -25.889,5.485 -44.951,25.243 -49.865,51.576 a 87.619,87.619 0 0 0 -0.462,17.214 63.424,63.424 0 0 0 46.041,54.156 62.931,62.931 0 0 0 50.623,-7.7 62.679,62.679 0 0 0 22.393,-24.847 61.629,61.629 0 0 0 6.761,-28.58 62.546,62.546 0 0 0 -6.431,-27.688 c -1.946,-4.064 -1.649,-6.906 0.989,-8.69 a 6,6 0 0 1 6,-0.066 c 2.21,1.487 6.662,11.862 8.509,19.758 a 67.686,67.686 0 0 1 1.814,17.016 69.625,69.625 0 0 1 -7.189,32.049 c -10.222,21.248 -28.658,35.654 -52.009,40.674 -3.628,0.76 -5.046,0.892 -12.367,1.024 -7.222,0.165 -8.871,0.1 -13.027,-0.529 a 73.8,73.8 0 0 1 -55.537,-40.012 75.123,75.123 0 0 1 -2.969,-60.132 72.356,72.356 0 0 1 16.786,-25.639 72.983,72.983 0 0 1 42.744,-21.146 121.015,121.015 0 0 1 18.634,-0.099 z"
           transform="translate(-31.6,479.897)"
           style="fill:#2699fb;stroke:#2699fb;stroke-width:0px"
           id="path14" />
        <path
           d="m 157.7,-415.294 c 4.947,0.892 9.531,2.412 10.586,3.535 a 4.839,4.839 0 0 1 1.583,3.965 5.044,5.044 0 0 1 -2.506,4.626 c -1.682,0.958 -3.3,0.958 -6.5,-0.066 a 42.961,42.961 0 0 0 -25,0.033 42.7,42.7 0 0 0 -27.142,26.168 42.97,42.97 0 0 0 0,27.886 42.881,42.881 0 0 0 25.79,25.838 44.591,44.591 0 0 0 21.041,1.751 55.006,55.006 0 0 0 11.477,-3.767 c 5.64,-2.841 12.862,-9.185 16.094,-14.141 6.992,-10.672 9.036,-23.525 5.606,-34.825 -1.22,-4.064 -1.319,-6.179 -0.33,-7.632 a 5.405,5.405 0 0 1 4.617,-2.643 c 3.1,0 4.551,1.355 5.837,5.452 a 53.256,53.256 0 0 1 -12.994,53.526 53.56,53.56 0 0 1 -26.614,14.439 c -3,0.661 -4.254,0.76 -10.817,0.76 -6.563,0 -7.816,-0.1 -10.817,-0.76 -18.864,-4.229 -33.342,-17.181 -39.344,-35.089 a 56.1,56.1 0 0 1 -1.946,-25.937 52.891,52.891 0 0 1 43.928,-43.25 66.931,66.931 0 0 1 17.451,0.131 z"
           transform="translate(-74.434,437.101)"
           style="fill:#2699fb;stroke:#2699fb;stroke-width:0px"
           id="path16" />
        <path
           d="m 192.031,-351.3 a 5.471,5.471 0 0 1 2.408,6.079 c -0.4,1.553 -2.078,3.436 -3.3,3.7 -0.429,0.1 -1.979,0.4 -3.43,0.661 a 21.451,21.451 0 0 0 -16.49,15.562 23.093,23.093 0 0 0 1.913,15.2 23.721,23.721 0 0 0 8.805,8.525 20.962,20.962 0 0 0 20.414,-0.661 22.13,22.13 0 0 0 9.63,-13.646 c 0.726,-3.965 1.022,-4.758 2.078,-5.815 a 6.039,6.039 0 0 1 4.782,-1.619 6.326,6.326 0 0 1 3.661,2.544 c 1.814,3.007 -0.231,11.762 -4.155,17.842 a 32.565,32.565 0 0 1 -17.842,13.381 c -2.671,0.826 -3.364,0.892 -8.674,0.892 -6.266,0.033 -7.453,-0.165 -12.433,-2.082 a 32.857,32.857 0 0 1 -13.917,-11.2 37.757,37.757 0 0 1 -4.716,-10.309 40.95,40.95 0 0 1 0,-16.025 40.168,40.168 0 0 1 6.365,-12.324 c 5.211,-6.311 13.522,-10.705 21.074,-11.168 2.409,-0.163 2.936,-0.096 3.827,0.463 z"
           transform="translate(-117.509,394.184)"
           style="fill:#2699fb;stroke:#2699fb;stroke-width:0px"
           id="path18" />
      </g>
    </g>
  </g>
</svg>
